<svg xmlns="http://www.w3.org/2000/svg" viewBox="0 0 512 512">
  <defs>
    <linearGradient id="g" x1="0" y1="0" x2="1" y2="1">
      <stop offset="0" stop-color="#6C4DFF"/>
      <stop offset="1" stop-color="#FF2EA6"/>
    </linearGradient>
  </defs>
  <rect width="512" height="512" rx="114" fill="#0a0a0f"/>
  <rect x="36" y="36" width="440" height="440" rx="96" fill="url(#g)"/>
  <g fill="#ffffff" fill-opacity="0.94">
    <rect x="110" y="110" width="84" height="84" rx="18"/>
    <rect x="214" y="110" width="84" height="84" rx="18"/>
    <rect x="318" y="110" width="84" height="84" rx="18"/>
    <rect x="110" y="214" width="84" height="84" rx="18"/>
    <rect x="318" y="214" width="84" height="84" rx="18"/>
    <rect x="110" y="318" width="84" height="84" rx="18"/>
    <rect x="214" y="318" width="84" height="84" rx="18"/>
    <rect x="318" y="318" width="84" height="84" rx="18"/>
  </g>
  <rect x="214" y="214" width="84" height="84" rx="18" fill="#FFD54A"/>
  <path d="M256 230l11 22 24 3-17 17 4 24-22-12-22 12 4-24-17-17 24-3z" fill="#0a0a0f"/>
</svg>
